<?xml version="1.0" encoding="iso-8859-1"?>
<!-- Uploaded to: SVG Repo, www.svgrepo.com, Generator: SVG Repo Mixer Tools -->
<svg fill="#000000" height="800px" width="800px" version="1.1" id="Layer_1" xmlns="http://www.w3.org/2000/svg" xmlns:xlink="http://www.w3.org/1999/xlink" 
	 viewBox="0 0 512 512" xml:space="preserve">
<g>
	<g>
		<path d="M458.957,256.083c-0.017-0.025-0.035-0.051-0.052-0.077c0.017-0.026,0.035-0.051,0.052-0.077
			c65.528-99.595,18.361-182.66-101.425-175.673c-0.031,0.001-0.063,0.004-0.093,0.007c-0.014-0.028-0.028-0.056-0.041-0.084
			c-53.615-106.8-149.13-107.006-202.85,0c-0.014,0.028-0.028,0.056-0.041,0.084c-0.03-0.001-0.062-0.004-0.093-0.007
			c-119.283-6.968-167.24,75.64-101.425,175.673c0.017,0.026,0.035,0.051,0.052,0.077c-0.017,0.026-0.035,0.051-0.052,0.077
			c-66.89,101.666-15.501,183.105,101.518,175.667c53.276,106.552,149.207,107.447,202.931,0
			C473.123,439.071,526.546,358.809,458.957,256.083z M78.767,289.367c13.172,14.872,28.299,29.301,45.012,42.962
			c3.474,21.304,8.406,41.619,14.7,60.461C66.955,392.002,43.61,351.841,78.767,289.367z M118.055,273.901
			c-5.719-5.888-11.087-11.864-16.071-17.895c4.986-6.032,10.352-12.005,16.071-17.895
			C117.622,250.114,117.622,261.882,118.055,273.901z M123.778,179.683c-16.713,13.661-31.84,28.09-45.012,42.962
			c-35.087-62.35-11.949-102.637,59.713-103.424C132.185,138.064,127.253,158.379,123.778,179.683z M332.969,122.646
			c2.73,7.333,5.221,14.968,7.462,22.865c-9.791-6.133-19.979-12.053-30.995-17.895
			C317.394,125.609,325.251,123.948,332.969,122.646z M255.973,39.516c20.83,0,42.171,16.722,59.712,46.346
			c-19.466,3.97-39.524,9.856-59.712,17.499c-20.187-7.643-40.246-13.529-59.712-17.499
			C213.802,56.238,235.143,39.516,255.973,39.516z M178.977,122.646c7.716,1.302,15.573,2.963,23.533,4.971
			c-10.607,5.625-20.803,11.511-30.995,17.895C173.757,137.616,176.247,129.981,178.977,122.646z M178.977,389.365
			c-2.73-7.333-5.221-14.968-7.462-22.865c10.175,6.374,20.37,12.26,30.995,17.894C194.552,386.402,186.695,388.063,178.977,389.365
			z M196.262,426.151c19.466-3.972,39.525-9.856,59.712-17.499c20.187,7.643,40.246,13.529,59.712,17.499
			C279.237,487.702,232.782,487.829,196.262,426.151z M332.969,389.365c-7.716-1.302-15.573-2.963-23.533-4.971
			c10.206-5.412,20.429-11.276,30.995-17.894C338.189,374.397,335.699,382.031,332.969,389.365z M351.487,311.151
			c-28.948,21.91-62.205,41.089-95.514,55.145c-33.245-14.029-66.51-33.191-95.514-55.145c-4.474-35.809-4.51-74.197,0-110.29
			c28.831-21.821,62.068-41.032,95.514-55.145c33.312,14.056,66.569,33.236,95.514,55.145
			C355.961,236.668,355.997,275.055,351.487,311.151z M373.467,392.789c6.294-18.844,11.226-39.157,14.7-60.461
			c16.713-13.661,31.84-28.09,45.012-42.962C468.262,351.707,445.142,392,373.467,392.789z M393.892,238.112
			c5.719,5.888,11.086,11.864,16.071,17.895c-4.986,6.032-10.352,12.005-16.071,17.895
			C394.323,261.893,394.325,250.13,393.892,238.112z M433.179,222.645c-13.172-14.872-28.298-29.301-45.012-42.962
			c-3.474-21.305-8.408-41.619-14.702-60.462C444.994,120.006,468.334,160.178,433.179,222.645z"/>
	</g>
</g>
<g>
	<g>
		<path d="M255.973,202.246c-29.643,0-53.76,24.117-53.76,53.76s24.117,53.76,53.76,53.76s53.76-24.117,53.76-53.76
			S285.616,202.246,255.973,202.246z M255.973,270.404c-7.939,0-14.399-6.459-14.399-14.399c0-7.939,6.459-14.399,14.399-14.399
			c7.939,0,14.399,6.459,14.399,14.399C270.372,263.945,263.912,270.404,255.973,270.404z"/>
	</g>
</g>
</svg>