<?xml version="1.0" encoding="iso-8859-1"?>
<!-- Uploaded to: SVG Repo, www.svgrepo.com, Generator: SVG Repo Mixer Tools -->
<svg fill="#000000" height="800px" width="800px" version="1.1" id="Layer_1" xmlns="http://www.w3.org/2000/svg" xmlns:xlink="http://www.w3.org/1999/xlink" 
	 viewBox="0 0 512 512" xml:space="preserve">
<g>
	<g>
		<path d="M486.122,0H98.918C87.455,0,78.162,9.294,78.162,20.757v87.592H25.855c-11.463,0-20.757,9.294-20.757,20.757v147.975
			c0,11.463,9.294,20.757,20.757,20.757h52.307v159.726c0,30.016,24.42,54.437,54.437,54.437H397.89
			c30.016,0,54.437-24.42,54.437-54.437V129.185l52.149-98.734C511.77,16.643,501.734,0,486.122,0z M78.162,256.324h-31.55V149.862
			h31.55V256.324z M410.814,457.565c0,7.124-5.798,12.922-12.923,12.922H132.598c-7.125,0-12.923-5.798-12.923-12.923V223.851
			h291.138V457.565z M413.216,114.346c-1.579,2.988-2.402,6.314-2.402,9.693v58.296H119.675V41.513h332.01L413.216,114.346z"/>
	</g>
</g>
<g>
	<g>
		<path d="M241.945,84.199h-58.787c-11.463,0-20.757,9.294-20.757,20.757s9.293,20.757,20.757,20.757h58.787
			c11.463,0,20.757-9.293,20.757-20.757S253.408,84.199,241.945,84.199z"/>
	</g>
</g>
</svg>