<?xml version="1.0" encoding="iso-8859-1"?>
<!-- Uploaded to: SVG Repo, www.svgrepo.com, Generator: SVG Repo Mixer Tools -->
<svg fill="#000000" height="800px" width="800px" version="1.1" id="Layer_1" xmlns="http://www.w3.org/2000/svg" xmlns:xlink="http://www.w3.org/1999/xlink" 
	 viewBox="0 0 512.001 512.001" xml:space="preserve">
<g>
	<g>
		<path d="M449.366,420.676L346.559,242.608V73.975h12.799c10.875,0,19.692-8.817,19.692-19.692
			c0-10.875-8.817-19.692-19.692-19.692c-11.21,0-44.365,0-49.213,0l2.484-10.261c2.559-10.571-3.937-21.214-14.507-23.772
			c-10.568-2.559-21.214,3.937-23.772,14.507l-4.726,19.525c-12.251,0-104.263,0-116.982,0c-10.875,0-19.692,8.817-19.692,19.692
			s8.817,19.692,19.692,19.692h12.799v168.634L62.631,420.676c-23.431,40.584,5.818,91.324,52.726,91.324H396.64
			C443.502,512.001,472.821,461.3,449.366,420.676z M300.61,73.975h6.564v173.909c0,3.457,0.91,6.853,2.639,9.846l11.383,19.718
			h-69.838L300.61,73.975z M202.185,257.73c1.729-2.993,2.639-6.389,2.639-9.846V73.975h55.265l-49.251,203.474H190.8
			L202.185,257.73z M396.64,472.616H115.358c-16.537,0-26.909-17.891-18.62-32.248l71.324-123.535h33.243l-1.943,8.027
			c-2.559,10.571,3.937,21.214,14.507,23.772c1.557,0.377,3.115,0.557,4.649,0.557c8.881,0,16.942-6.051,19.124-15.065l4.185-17.292
			h102.109l71.324,123.536C423.527,454.69,413.219,472.616,396.64,472.616z"/>
	</g>
</g>
<g>
	<g>
		<circle cx="202.777" cy="394.618" r="19.28"/>
	</g>
</g>
<g>
	<g>
		<circle cx="291.09" cy="394.618" r="37.414"/>
	</g>
</g>
</svg>