<?xml version="1.0" encoding="iso-8859-1"?>
<!-- Uploaded to: SVG Repo, www.svgrepo.com, Generator: SVG Repo Mixer Tools -->
<svg fill="#000000" height="800px" width="800px" version="1.1" id="Layer_1" xmlns="http://www.w3.org/2000/svg" xmlns:xlink="http://www.w3.org/1999/xlink" 
	 viewBox="0 0 512 512" xml:space="preserve">
<g>
	<g>
		<circle cx="205.817" cy="408.446" r="12.716"/>
	</g>
</g>
<g>
	<g>
		<circle cx="264.068" cy="408.446" r="24.675"/>
	</g>
</g>
<g>
	<g>
		<path d="M207.888,0c-9.852,0-17.839,7.987-17.839,17.839v55.586c0,9.852,7.987,17.839,17.839,17.839s17.839-7.987,17.839-17.839
			V17.839C225.728,7.987,217.74,0,207.888,0z"/>
	</g>
</g>
<g>
	<g>
		<path d="M273.96,24.09c-9.852,0-17.839,7.987-17.839,17.839v31.495c0,9.853,7.987,17.84,17.839,17.84s17.839-7.987,17.839-17.839
			V41.929C291.799,32.077,283.812,24.09,273.96,24.09z"/>
	</g>
</g>
<g>
	<g>
		<path d="M406.114,269.606c-5.458-5.458-55.259-55.257-63.447-63.446c-6.966-6.967-18.261-6.967-25.228,0
			c-0.636,0.636-1.194,1.319-1.714,2.021v-48.256h8.276c9.852,0,17.839-7.987,17.839-17.839s-7.987-17.839-17.839-17.839
			c-6.203,0-160.692,0-166.154,0c-9.852,0-17.839,7.987-17.839,17.839s7.987,17.839,17.839,17.839h8.277v92.499
			C47.69,326.766,99.941,512,240.924,512c101.066,0,169.708-104.303,128.567-197.41l16.3-16.3
			C403.782,306.916,420.256,283.745,406.114,269.606z M240.924,476.322c-63.987,0-113.595-57.211-103.6-121.193h207.199
			C354.562,419.026,304.932,476.322,240.924,476.322z M335.17,298.455c-5.56,5.56-6.8,14.085-3.121,20.993h-182.25
			c9.746-17.085,24.293-31.396,42.453-40.924c5.873-3.081,9.551-9.165,9.551-15.797V159.924h78.245v102.804
			c0,15.019,21.506,26.64,33.737,14.409l24.701-24.703l10.676,10.676l10.676,10.676L335.17,298.455z"/>
	</g>
</g>
</svg>