<?xml version="1.0" encoding="iso-8859-1"?>
<!-- Uploaded to: SVG Repo, www.svgrepo.com, Generator: SVG Repo Mixer Tools -->
<svg fill="#000000" height="800px" width="800px" version="1.1" id="Layer_1" xmlns="http://www.w3.org/2000/svg" xmlns:xlink="http://www.w3.org/1999/xlink" 
	 viewBox="0 0 512 512" xml:space="preserve">
<g>
	<g>
		<path d="M352.156,170.177V39.385h15.365c10.875,0,19.692-8.817,19.692-19.692C387.213,8.817,378.396,0,367.521,0
			c-5.153,0-208.656,0-223.043,0c-10.875,0-19.692,8.817-19.692,19.692c0,10.875,8.817,19.692,19.692,19.692h15.365v130.792
			C2.212,266.398,69.795,512,256,512C442.192,512,509.796,266.4,352.156,170.177z M188.686,199.078
			c6.483-3.401,10.542-10.118,10.542-17.438v-24.956h26.138c10.875,0,19.692-8.817,19.692-19.692
			c0-10.875-8.817-19.692-19.692-19.692h-26.138V98.035h26.138c10.875,0,19.692-8.817,19.692-19.692
			c0-10.875-8.817-19.692-19.692-19.692h-26.138V39.385H312.77V181.64c0,7.32,4.061,14.037,10.542,17.438
			c27.336,14.343,48.754,36.52,62.128,62.957H126.558C139.933,235.597,161.352,213.421,188.686,199.078z M256,472.615
			c-89.961,0-158.973-81.643-142.672-171.195h285.343C414.993,391.09,345.832,472.615,256,472.615z"/>
	</g>
</g>
<g>
	<g>
		<circle cx="208.871" cy="377.254" r="17.067"/>
	</g>
</g>
<g>
	<g>
		<circle cx="287.063" cy="377.254" r="33.123"/>
	</g>
</g>
</svg>