<?xml version="1.0" encoding="iso-8859-1"?>
<!-- Uploaded to: SVG Repo, www.svgrepo.com, Generator: SVG Repo Mixer Tools -->
<svg fill="#000000" height="800px" width="800px" version="1.1" id="Layer_1" xmlns="http://www.w3.org/2000/svg" xmlns:xlink="http://www.w3.org/1999/xlink" 
	 viewBox="0 0 511.999 511.999" xml:space="preserve">
<g>
	<g>
		<path d="M429.576,429.813l-92.173-159.647V119.177h11.287c9.858,0,17.851-7.992,17.851-17.851s-7.992-17.851-17.851-17.851
			c-8.02,0-177.092,0-185.384,0c-9.858,0-17.851,7.992-17.851,17.851s7.992,17.851,17.851,17.851h11.287v150.988L82.42,429.812
			c-21.087,36.523,5.235,82.187,47.45,82.187h252.256C424.299,512,450.683,466.372,429.576,429.813z M207.903,283.874
			c1.566-2.713,2.392-5.792,2.392-8.925V119.177h91.406v155.771c0,3.133,0.825,6.212,2.392,8.925l10.044,17.396H197.859
			L207.903,283.874z M382.126,476.298H129.87c-14.689,0-23.889-15.89-16.532-28.634l63.907-110.691h157.503l63.907,110.691
			C406,460.382,396.846,476.298,382.126,476.298z"/>
	</g>
</g>
<g>
	<g>
		<circle cx="185.114" cy="415.748" r="15.471"/>
	</g>
</g>
<g>
	<g>
		<circle cx="255.994" cy="415.748" r="30.025"/>
	</g>
</g>
<g>
	<g>
		<circle cx="326.886" cy="415.748" r="15.471"/>
	</g>
</g>
<g>
	<g>
		<circle cx="213.283" cy="30.025" r="15.471"/>
	</g>
</g>
<g>
	<g>
		<circle cx="284.163" cy="30.025" r="30.025"/>
	</g>
</g>
</svg>