<?xml version="1.0" encoding="iso-8859-1"?>
<!-- Uploaded to: SVG Repo, www.svgrepo.com, Generator: SVG Repo Mixer Tools -->
<svg fill="#000000" height="800px" width="800px" version="1.1" id="Layer_1" xmlns="http://www.w3.org/2000/svg" xmlns:xlink="http://www.w3.org/1999/xlink" 
	 viewBox="0 0 512 512" xml:space="preserve">
<g>
	<g>
		<path d="M222.924,0c-9.864,0-17.86,7.997-17.86,17.86v55.651c0,9.864,7.997,17.86,17.86,17.86c9.864,0,17.86-7.997,17.86-17.86
			V17.86C240.784,7.997,232.787,0,222.924,0z"/>
	</g>
</g>
<g>
	<g>
		<path d="M289.074,0c-9.864,0-17.86,7.997-17.86,17.86v55.651c0,9.864,7.997,17.86,17.86,17.86c9.864,0,17.86-7.997,17.86-17.86
			V17.86C306.934,7.997,298.938,0,289.074,0z"/>
	</g>
</g>
<g>
	<g>
		<path d="M413.04,435.596L330.764,293.09V160.282h8.229c9.864,0,17.86-7.997,17.86-17.86c0-9.864-7.997-17.86-17.86-17.86
			c-6.569,0-159.745,0-165.986,0c-9.864,0-17.86,7.997-17.86,17.86c0,9.864,7.997,17.86,17.86,17.86h8.229V293.09L98.959,435.596
			C79.352,469.555,103.83,512,143.069,512h225.86C408.141,512,432.659,469.579,413.04,435.596z M216.956,297.876V160.282h78.087
			v137.594c0,6.008,1.961,8.182,9.76,21.691h-97.607C214.989,306.068,216.956,303.889,216.956,297.876z M368.928,476.279H143.069
			c-11.705,0-19.042-12.662-13.176-22.822l56.678-98.169h138.854l56.678,98.169C387.957,463.595,380.661,476.279,368.928,476.279z"
			/>
	</g>
</g>
<g>
	<g>
		<circle cx="213.254" cy="415.696" r="15.479"/>
	</g>
</g>
<g>
	<g>
		<circle cx="284.184" cy="415.696" r="30.041"/>
	</g>
</g>
</svg>