<?xml version="1.0" encoding="iso-8859-1"?>
<!-- Uploaded to: SVG Repo, www.svgrepo.com, Generator: SVG Repo Mixer Tools -->
<svg fill="#000000" height="800px" width="800px" version="1.1" id="Layer_1" xmlns="http://www.w3.org/2000/svg" xmlns:xlink="http://www.w3.org/1999/xlink" 
	 viewBox="0 0 512 512" xml:space="preserve">
<g>
	<g>
		<path d="M99.251,0C88.375,0,79.558,8.817,79.558,19.692v39.801c0,10.877,8.816,19.692,19.692,19.692
			c10.875,0,19.692-8.817,19.692-19.692V19.692C118.943,8.817,110.126,0,99.251,0z"/>
	</g>
</g>
<g>
	<g>
		<path d="M158.237,0c-10.875,0-19.692,8.817-19.692,19.692v39.801c0,10.877,8.817,19.692,19.692,19.692
			c10.875,0,19.692-8.817,19.692-19.692V19.692C177.929,8.817,169.112,0,158.237,0z"/>
	</g>
</g>
<g>
	<g>
		<path d="M353.763,0c-10.875,0-19.692,8.817-19.692,19.692v39.801c0,10.877,8.817,19.692,19.692,19.692
			c10.875,0,19.692-8.817,19.692-19.692V19.692C373.455,8.817,364.638,0,353.763,0z"/>
	</g>
</g>
<g>
	<g>
		<path d="M412.749,0c-10.875,0-19.692,8.817-19.692,19.692v39.801c0,10.877,8.817,19.692,19.692,19.692s19.692-8.817,19.692-19.692
			V19.692C432.442,8.817,423.625,0,412.749,0z"/>
	</g>
</g>
<g>
	<g>
		<path d="M447.999,97.113H318.515c-10.875,0-19.692,8.817-19.692,19.692c0,6.046,0,169.519,0,183.503
			c0,23.612-19.211,42.823-42.823,42.823c-23.612,0-42.823-19.211-42.823-42.823c0-14.049,0-177.484,0-183.503
			c0-10.875-8.817-19.692-19.692-19.692H64.001c-10.875,0-19.692,8.817-19.692,19.692c0,6.046,0,169.519,0,183.503
			C44.309,417.036,139.273,512,256,512s211.691-94.964,211.691-211.691c0-14.049,0-177.484,0-183.503
			C467.691,105.929,458.874,97.113,447.999,97.113z M83.694,136.498h90.099v38.305H83.694V136.498z M428.306,300.309
			c0,95.01-77.296,172.306-172.306,172.306S83.694,395.319,83.694,300.309v-86.121h90.099v86.121
			c0,45.329,36.878,82.208,82.208,82.208c45.329,0,82.208-36.878,82.208-82.208v-86.121h90.099V300.309z M428.306,174.803h-90.099
			v-38.305h90.099V174.803z"/>
	</g>
</g>
</svg>