<?xml version="1.0" encoding="iso-8859-1"?>
<!-- Uploaded to: SVG Repo, www.svgrepo.com, Generator: SVG Repo Mixer Tools -->
<svg fill="#000000" height="800px" width="800px" version="1.1" id="Layer_1" xmlns="http://www.w3.org/2000/svg" xmlns:xlink="http://www.w3.org/1999/xlink" 
	 viewBox="0 0 512 512" xml:space="preserve">
<g>
	<g>
		<path d="M492.308,121.87H359.463L471.49,65.408c9.711-4.896,13.617-16.736,8.722-26.448c-4.893-9.712-16.733-13.618-26.448-8.722
			l-181.81,91.632H19.692C8.817,121.87,0,130.687,0,141.562v25.441c0,81.08,38.358,157.037,103.091,205.3v91.878
			c0,10.875,8.817,19.692,19.692,19.692h266.433c10.875,0,19.692-8.817,19.692-19.692v-91.878
			C473.643,324.039,512,248.082,512,167.004v-25.441C512,130.687,503.183,121.87,492.308,121.87z M142.475,444.488v-47.966
			c70.253,34.874,154.985,35.747,227.048,0v47.966H142.475z M256,383.619c-112.346,0-216.615-87.385-216.615-222.364
			c13.632,0,419.229,0,433.231,0C472.615,295.04,369.45,383.619,256,383.619z"/>
	</g>
</g>
</svg>