<?xml version="1.0" encoding="iso-8859-1"?>
<!-- Uploaded to: SVG Repo, www.svgrepo.com, Generator: SVG Repo Mixer Tools -->
<svg fill="#000000" height="800px" width="800px" version="1.1" id="Layer_1" xmlns="http://www.w3.org/2000/svg" xmlns:xlink="http://www.w3.org/1999/xlink" 
	 viewBox="0 0 512 512" xml:space="preserve">
<g>
	<g>
		<path d="M506.888,191.487L392.785,75.201c-3.359-3.423-7.953-5.351-12.749-5.351h-58.102c-9.864,0-17.86,7.997-17.86,17.86
			c0,9.864,7.997,17.86,17.86,17.86h50.606l79.053,80.565H60.409l79.053-80.565h50.606c9.864,0,17.86-7.997,17.86-17.86
			c0-9.864-7.997-17.86-17.86-17.86h-58.102c-4.795,0-9.39,1.929-12.749,5.351L5.112,191.487C1.735,194.927,0,199.56,0,203.996
			c0,11.672,0,90.46,0,101.224c0,75.503,61.427,136.93,136.93,136.93c50.95,0,95.489-27.969,119.07-69.363
			c23.581,41.393,68.12,69.363,119.07,69.363c75.503,0,136.93-61.427,136.93-136.93c0-10.76,0-89.548,0-101.224
			C512,199.522,510.233,194.893,506.888,191.487z M238.14,305.22c0,55.807-45.402,101.209-101.209,101.209
			c-51.165,0-101.209-38.344-101.209-108.498H239.69C238.693,300.157,238.14,302.624,238.14,305.22z M375.07,406.429
			c-55.807,0-101.209-45.403-101.209-101.209c0-2.596-0.554-5.063-1.55-7.288h203.969
			C476.279,369.327,424.908,406.429,375.07,406.429z M476.279,262.211H35.721v-40.354h440.558V262.211z"/>
	</g>
</g>
</svg>